{"accessors" : [{"bufferView" : 0, "byteOffset" : 0, "componentType" : 5123, "count" : 7452, "type" : "SCALAR", "max" : [7451], "min" : [0]}, {"bufferView" : 1, "byteOffset" : 0, "componentType" : 5126, "count" : 7452, "type" : "VEC3", "max" : [0.9612300992012024, 1.8595231771469116, 1.797253966331482], "min" : [-0.9612300992012024, -2.1027004718780518, 0.17960169911384583], "name" : "POSITION"}, {"bufferView" : 1, "byteOffset" : 12, "componentType" : 5126, "count" : 7452, "type" : "VEC3", "max" : [1.0000044107437134, 1.0000044107437134, 1.0000044107437134], "min" : [-1.0000044107437134, -1.0000044107437134, -1.0000044107437134], "name" : "NORMAL"}, {"bufferView" : 1, "byteOffset" : 24, "componentType" : 5126, "count" : 7452, "type" : "VEC2", "max" : [0.9549661874771118, -0], "min" : [0, -0.7496945858001709], "name" : "TEXCOORD_0"}, {"bufferView" : 0, "byteOffset" : 14904, "componentType" : 5123, "count" : 468, "type" : "SCALAR", "max" : [467], "min" : [0]}, {"bufferView" : 2, "byteOffset" : 0, "componentType" : 5126, "count" : 468, "type" : "VEC3", "max" : [0.12336724996566772, 0.3230738043785095, 0.32307395339012146], "min" : [-0.11567986011505127, -0.32307422161102295, -0.32307401299476624], "name" : "POSITION"}, {"bufferView" : 2, "byteOffset" : 12, "componentType" : 5126, "count" : 468, "type" : "VEC3", "max" : [1.0000044107437134, 1.0000044107437134, 1.0000044107437134], "min" : [-1.0000044107437134, -1.0000044107437134, -1.0000044107437134], "name" : "NORMAL"}, {"bufferView" : 2, "byteOffset" : 24, "componentType" : 5126, "count" : 468, "type" : "VEC2", "max" : [0.43390536308288574, -0.0030823349952697754], "min" : [0.12284865975379944, -0.10654841363430023], "name" : "TEXCOORD_0"}, {"bufferView" : 0, "byteOffset" : 15840, "componentType" : 5123, "count" : 468, "type" : "SCALAR", "max" : [467], "min" : [0]}, {"bufferView" : 3, "byteOffset" : 0, "componentType" : 5126, "count" : 468, "type" : "VEC3", "max" : [0.11567986011505127, 0.3230738043785095, 0.32307395339012146], "min" : [-0.12336724996566772, -0.32307422161102295, -0.32307401299476624], "name" : "POSITION"}, {"bufferView" : 3, "byteOffset" : 12, "componentType" : 5126, "count" : 468, "type" : "VEC3", "max" : [1.0000044107437134, 1.0000044107437134, 1.0000044107437134], "min" : [-1.0000044107437134, -1.0000044107437134, -1.0000044107437134], "name" : "NORMAL"}, {"bufferView" : 3, "byteOffset" : 24, "componentType" : 5126, "count" : 468, "type" : "VEC2", "max" : [0.43390536308288574, -0.0030823349952697754], "min" : [0.12284865975379944, -0.10654841363430023], "name" : "TEXCOORD_0"}, {"bufferView" : 0, "byteOffset" : 16776, "componentType" : 5123, "count" : 468, "type" : "SCALAR", "max" : [467], "min" : [0]}, {"bufferView" : 4, "byteOffset" : 0, "componentType" : 5126, "count" : 468, "type" : "VEC3", "max" : [0.1156798005104065, 0.32307446002960205, 0.32307395339012146], "min" : [-0.1233673095703125, -0.3230736255645752, -0.32307401299476624], "name" : "POSITION"}, {"bufferView" : 4, "byteOffset" : 12, "componentType" : 5126, "count" : 468, "type" : "VEC3", "max" : [1.0000044107437134, 1.0000044107437134, 1.0000044107437134], "min" : [-1.0000044107437134, -1.0000044107437134, -1.0000044107437134], "name" : "NORMAL"}, {"bufferView" : 4, "byteOffset" : 24, "componentType" : 5126, "count" : 468, "type" : "VEC2", "max" : [0.43390536308288574, -0.0030823349952697754], "min" : [0.12284865975379944, -0.10654841363430023], "name" : "TEXCOORD_0"}, {"bufferView" : 0, "byteOffset" : 17712, "componentType" : 5123, "count" : 468, "type" : "SCALAR", "max" : [467], "min" : [0]}, {"bufferView" : 5, "byteOffset" : 0, "componentType" : 5126, "count" : 468, "type" : "VEC3", "max" : [0.1233673095703125, 0.3230743408203125, 0.3230738937854767], "min" : [-0.1156798005104065, -0.32307374477386475, -0.323074072599411], "name" : "POSITION"}, {"bufferView" : 5, "byteOffset" : 12, "componentType" : 5126, "count" : 468, "type" : "VEC3", "max" : [1.0000044107437134, 1.0000044107437134, 1.0000044107437134], "min" : [-1.0000044107437134, -1.0000044107437134, -1.0000044107437134], "name" : "NORMAL"}, {"bufferView" : 5, "byteOffset" : 24, "componentType" : 5126, "count" : 468, "type" : "VEC2", "max" : [0.43390536308288574, -0.0030823349952697754], "min" : [0.12284865975379944, -0.10654841363430023], "name" : "TEXCOORD_0"}], "asset" : {"generator" : "Aspose.3D 21.10", "version" : "2.0"}, "buffers" : [{"uri" : "data:application/octet-stream;base64,", "byteLength" : 317040}], "bufferViews" : [{"buffer" : 0, "byteOffset" : 0, "byteLength" : 18648, "target" : 34963}, {"buffer" : 0, "byteOffset" : 18652, "byteLength" : 238464, "byteStride" : 32, "target" : 34962}, {"buffer" : 0, "byteOffset" : 257120, "byteLength" : 14976, "byteStride" : 32, "target" : 34962}, {"buffer" : 0, "byteOffset" : 272100, "byteLength" : 14976, "byteStride" : 32, "target" : 34962}, {"buffer" : 0, "byteOffset" : 287080, "byteLength" : 14976, "byteStride" : 32, "target" : 34962}, {"buffer" : 0, "byteOffset" : 302060, "byteLength" : 14976, "byteStride" : 32, "target" : 34962}], "images" : [{"uri" : "data:image/png;base64,"}], "materials" : [{"name" : "", "pbrMetallicRoughness" : {"baseColorFactor" : [0.800000011920929, 0.800000011920929, 0.800000011920929, 1], "baseColorTexture" : {"index" : 0, "texCoord" : 0}, "metallicFactor" : 0, "roughnessFactor" : 0}, "emissiveFactor" : [0.800000011920929, 0.800000011920929, 0.800000011920929], "alphaMode" : "OPAQUE", "doubleSided" : false}, {"name" : "", "pbrMetallicRoughness" : {"baseColorFactor" : [0.800000011920929, 0.800000011920929, 0.800000011920929, 1], "baseColorTexture" : {"index" : 0, "texCoord" : 0}, "metallicFactor" : 0, "roughnessFactor" : 0}, "emissiveFactor" : [0.800000011920929, 0.800000011920929, 0.800000011920929], "alphaMode" : "OPAQUE", "doubleSided" : false}, {"name" : "", "pbrMetallicRoughness" : {"baseColorFactor" : [0.800000011920929, 0.800000011920929, 0.800000011920929, 1], "baseColorTexture" : {"index" : 0, "texCoord" : 0}, "metallicFactor" : 0, "roughnessFactor" : 0}, "emissiveFactor" : [0.800000011920929, 0.800000011920929, 0.800000011920929], "alphaMode" : "OPAQUE", "doubleSided" : false}, {"name" : "", "pbrMetallicRoughness" : {"baseColorFactor" : [0.800000011920929, 0.800000011920929, 0.800000011920929, 1], "baseColorTexture" : {"index" : 0, "texCoord" : 0}, "metallicFactor" : 0, "roughnessFactor" : 0}, "emissiveFactor" : [0.800000011920929, 0.800000011920929, 0.800000011920929], "alphaMode" : "OPAQUE", "doubleSided" : false}, {"name" : "", "pbrMetallicRoughness" : {"baseColorFactor" : [0.800000011920929, 0.800000011920929, 0.800000011920929, 1], "baseColorTexture" : {"index" : 0, "texCoord" : 0}, "metallicFactor" : 0, "roughnessFactor" : 0}, "emissiveFactor" : [0.800000011920929, 0.800000011920929, 0.800000011920929], "alphaMode" : "OPAQUE", "doubleSided" : false}], "meshes" : [{"primitives" : [{"attributes" : {"POSITION" : 1, "NORMAL" : 2, "TEXCOORD_0" : 3}, "indices" : 0, "material" : 0, "mode" : 4}], "name" : "Geometry"}, {"primitives" : [{"attributes" : {"POSITION" : 5, "NORMAL" : 6, "TEXCOORD_0" : 7}, "indices" : 4, "material" : 1, "mode" : 4}], "name" : "Geometry"}, {"primitives" : [{"attributes" : {"POSITION" : 9, "NORMAL" : 10, "TEXCOORD_0" : 11}, "indices" : 8, "material" : 2, "mode" : 4}], "name" : "Geometry"}, {"primitives" : [{"attributes" : {"POSITION" : 13, "NORMAL" : 14, "TEXCOORD_0" : 15}, "indices" : 12, "material" : 3, "mode" : 4}], "name" : "Geometry"}, {"primitives" : [{"attributes" : {"POSITION" : 17, "NORMAL" : 18, "TEXCOORD_0" : 19}, "indices" : 16, "material" : 4, "mode" : 4}], "name" : "Geometry"}], "nodes" : [{"matrix" : [100, 0, 0, 0, 0, -1.6292067961387602E-05, -99.99999999999868, 0, 0, 99.99999999999868, -1.6292067961387602E-05, 0, 0, 0, 0, 1], "mesh" : 0, "name" : "Model"}, {"matrix" : [86.60253964992069, 0, 50.00000126183913, 0, 50.00000126183909, -4.371139028513937E-06, -86.60253964992062, 0, 2.185569555890332E-06, 99.99999999999991, -3.7855174106482536E-06, 0, 77.0062484741211, 30.778751373291016, 124.32179260253906, 1], "mesh" : 1, "name" : "Model"}, {"matrix" : [86.60253964992069, 0, 50.00000126183913, 0, 50.00000126183909, -4.371139028513937E-06, -86.60253964992062, 0, 2.185569555890332E-06, 99.99999999999991, -3.7855174106482536E-06, 0, -77.0062484741211, 30.778751373291016, 124.32179260253906, 1], "mesh" : 2, "name" : "Model"}, {"matrix" : [100, 0, 0, 0, 0, -1.6292067961387602E-05, -99.99999999999868, 0, 0, 99.99999999999868, -1.6292067961387602E-05, 0, -77.00624084472656, 30.778751373291016, -121.23249816894531, 1], "mesh" : 3, "name" : "Model"}, {"matrix" : [100, 0, 0, 0, 0, -1.6292067961387602E-05, -99.99999999999868, 0, 0, 99.99999999999868, -1.6292067961387602E-05, 0, 77.00624084472656, 30.778757095336914, -121.23251342773438, 1], "mesh" : 4, "name" : "Model"}], "samplers" : [{"magFilter" : 9729, "minFilter" : 9729, "wrapS" : 10497, "wrapT" : 10497}], "scene" : 0, "scenes" : [{"nodes" : [0, 1, 2, 3, 4]}], "textures" : [{"sampler" : 0, "source" : 0}]}